<mxfile host="Electron" modified="2024-04-11T21:32:34.700Z" agent="Mozilla/5.0 (Windows NT 10.0; Win64; x64) AppleWebKit/537.36 (KHTML, like Gecko) draw.io/24.1.0 Chrome/120.0.6099.109 Electron/28.1.0 Safari/537.36" etag="k1q4S7ew-GywPoC66DXy" version="24.1.0" type="device">
  <diagram id="C5RBs43oDa-KdzZeNtuy" name="Page-1">
    <mxGraphModel dx="1067" dy="507" grid="1" gridSize="10" guides="1" tooltips="1" connect="1" arrows="1" fold="1" page="1" pageScale="1" pageWidth="827" pageHeight="1169" math="0" shadow="0">
      <root>
        <mxCell id="WIyWlLk6GJQsqaUBKTNV-0" />
        <mxCell id="WIyWlLk6GJQsqaUBKTNV-1" parent="WIyWlLk6GJQsqaUBKTNV-0" />
        <mxCell id="52Vc5Kafnn_lm5vKpaMh-3" value="" style="edgeStyle=orthogonalEdgeStyle;rounded=0;orthogonalLoop=1;jettySize=auto;html=1;" edge="1" parent="WIyWlLk6GJQsqaUBKTNV-1" source="WIyWlLk6GJQsqaUBKTNV-3" target="52Vc5Kafnn_lm5vKpaMh-2">
          <mxGeometry relative="1" as="geometry" />
        </mxCell>
        <mxCell id="WIyWlLk6GJQsqaUBKTNV-3" value="Take user input" style="rounded=1;whiteSpace=wrap;html=1;fontSize=12;glass=0;strokeWidth=1;shadow=0;" parent="WIyWlLk6GJQsqaUBKTNV-1" vertex="1">
          <mxGeometry x="10" y="30" width="120" height="40" as="geometry" />
        </mxCell>
        <mxCell id="52Vc5Kafnn_lm5vKpaMh-6" value="" style="edgeStyle=orthogonalEdgeStyle;rounded=0;orthogonalLoop=1;jettySize=auto;html=1;" edge="1" parent="WIyWlLk6GJQsqaUBKTNV-1" source="WIyWlLk6GJQsqaUBKTNV-6" target="52Vc5Kafnn_lm5vKpaMh-5">
          <mxGeometry relative="1" as="geometry" />
        </mxCell>
        <mxCell id="52Vc5Kafnn_lm5vKpaMh-10" value="NO" style="edgeLabel;html=1;align=center;verticalAlign=middle;resizable=0;points=[];" vertex="1" connectable="0" parent="52Vc5Kafnn_lm5vKpaMh-6">
          <mxGeometry x="-0.2667" y="3" relative="1" as="geometry">
            <mxPoint as="offset" />
          </mxGeometry>
        </mxCell>
        <mxCell id="52Vc5Kafnn_lm5vKpaMh-15" value="" style="edgeStyle=orthogonalEdgeStyle;rounded=0;orthogonalLoop=1;jettySize=auto;html=1;" edge="1" parent="WIyWlLk6GJQsqaUBKTNV-1" source="WIyWlLk6GJQsqaUBKTNV-6" target="52Vc5Kafnn_lm5vKpaMh-14">
          <mxGeometry relative="1" as="geometry" />
        </mxCell>
        <mxCell id="52Vc5Kafnn_lm5vKpaMh-16" value="YES" style="edgeLabel;html=1;align=center;verticalAlign=middle;resizable=0;points=[];" vertex="1" connectable="0" parent="52Vc5Kafnn_lm5vKpaMh-15">
          <mxGeometry x="-0.175" y="1" relative="1" as="geometry">
            <mxPoint as="offset" />
          </mxGeometry>
        </mxCell>
        <mxCell id="WIyWlLk6GJQsqaUBKTNV-6" value="Is the note in&lt;div&gt;A,B,C,D,E,F,G&lt;/div&gt;" style="rhombus;whiteSpace=wrap;html=1;shadow=0;fontFamily=Helvetica;fontSize=12;align=center;strokeWidth=1;spacing=6;spacingTop=-4;" parent="WIyWlLk6GJQsqaUBKTNV-1" vertex="1">
          <mxGeometry x="20" y="270" width="100" height="80" as="geometry" />
        </mxCell>
        <mxCell id="52Vc5Kafnn_lm5vKpaMh-8" value="" style="edgeStyle=orthogonalEdgeStyle;rounded=0;orthogonalLoop=1;jettySize=auto;html=1;" edge="1" parent="WIyWlLk6GJQsqaUBKTNV-1" source="52Vc5Kafnn_lm5vKpaMh-2" target="52Vc5Kafnn_lm5vKpaMh-7">
          <mxGeometry relative="1" as="geometry" />
        </mxCell>
        <mxCell id="52Vc5Kafnn_lm5vKpaMh-2" value="Save input to variable" style="whiteSpace=wrap;html=1;rounded=1;glass=0;strokeWidth=1;shadow=0;" vertex="1" parent="WIyWlLk6GJQsqaUBKTNV-1">
          <mxGeometry x="10" y="100" width="120" height="40" as="geometry" />
        </mxCell>
        <mxCell id="52Vc5Kafnn_lm5vKpaMh-5" value="Ask the user to enter a correct note" style="whiteSpace=wrap;html=1;shadow=0;strokeWidth=1;spacing=6;spacingTop=-4;" vertex="1" parent="WIyWlLk6GJQsqaUBKTNV-1">
          <mxGeometry x="330" y="280" width="120" height="60" as="geometry" />
        </mxCell>
        <mxCell id="52Vc5Kafnn_lm5vKpaMh-9" style="edgeStyle=orthogonalEdgeStyle;rounded=0;orthogonalLoop=1;jettySize=auto;html=1;exitX=0.5;exitY=1;exitDx=0;exitDy=0;entryX=0.5;entryY=0;entryDx=0;entryDy=0;" edge="1" parent="WIyWlLk6GJQsqaUBKTNV-1" source="52Vc5Kafnn_lm5vKpaMh-7" target="WIyWlLk6GJQsqaUBKTNV-6">
          <mxGeometry relative="1" as="geometry" />
        </mxCell>
        <mxCell id="52Vc5Kafnn_lm5vKpaMh-7" value="Split input in note and octave" style="whiteSpace=wrap;html=1;rounded=1;glass=0;strokeWidth=1;shadow=0;" vertex="1" parent="WIyWlLk6GJQsqaUBKTNV-1">
          <mxGeometry x="10" y="180" width="120" height="60" as="geometry" />
        </mxCell>
        <mxCell id="52Vc5Kafnn_lm5vKpaMh-18" value="" style="edgeStyle=orthogonalEdgeStyle;rounded=0;orthogonalLoop=1;jettySize=auto;html=1;" edge="1" parent="WIyWlLk6GJQsqaUBKTNV-1" source="52Vc5Kafnn_lm5vKpaMh-14" target="52Vc5Kafnn_lm5vKpaMh-17">
          <mxGeometry relative="1" as="geometry" />
        </mxCell>
        <mxCell id="52Vc5Kafnn_lm5vKpaMh-21" value="YES" style="edgeLabel;html=1;align=center;verticalAlign=middle;resizable=0;points=[];" vertex="1" connectable="0" parent="52Vc5Kafnn_lm5vKpaMh-18">
          <mxGeometry x="-0.1556" y="3" relative="1" as="geometry">
            <mxPoint as="offset" />
          </mxGeometry>
        </mxCell>
        <mxCell id="52Vc5Kafnn_lm5vKpaMh-20" value="" style="edgeStyle=orthogonalEdgeStyle;rounded=0;orthogonalLoop=1;jettySize=auto;html=1;" edge="1" parent="WIyWlLk6GJQsqaUBKTNV-1" source="52Vc5Kafnn_lm5vKpaMh-14" target="52Vc5Kafnn_lm5vKpaMh-19">
          <mxGeometry relative="1" as="geometry" />
        </mxCell>
        <mxCell id="52Vc5Kafnn_lm5vKpaMh-22" value="NO" style="edgeLabel;html=1;align=center;verticalAlign=middle;resizable=0;points=[];" vertex="1" connectable="0" parent="52Vc5Kafnn_lm5vKpaMh-20">
          <mxGeometry x="-0.2" y="-5" relative="1" as="geometry">
            <mxPoint as="offset" />
          </mxGeometry>
        </mxCell>
        <mxCell id="52Vc5Kafnn_lm5vKpaMh-14" value="Is the note A" style="rhombus;whiteSpace=wrap;html=1;shadow=0;fontFamily=Helvetica;fontSize=12;align=center;strokeWidth=1;spacing=6;spacingTop=-4;" vertex="1" parent="WIyWlLk6GJQsqaUBKTNV-1">
          <mxGeometry x="20" y="400" width="100" height="80" as="geometry" />
        </mxCell>
        <mxCell id="52Vc5Kafnn_lm5vKpaMh-56" value="" style="edgeStyle=orthogonalEdgeStyle;rounded=0;orthogonalLoop=1;jettySize=auto;html=1;" edge="1" parent="WIyWlLk6GJQsqaUBKTNV-1" source="52Vc5Kafnn_lm5vKpaMh-17" target="52Vc5Kafnn_lm5vKpaMh-55">
          <mxGeometry relative="1" as="geometry">
            <Array as="points">
              <mxPoint x="70" y="730" />
              <mxPoint x="385" y="730" />
            </Array>
          </mxGeometry>
        </mxCell>
        <mxCell id="52Vc5Kafnn_lm5vKpaMh-17" value="Fourth octave frequency=440" style="whiteSpace=wrap;html=1;shadow=0;strokeWidth=1;spacing=6;spacingTop=-4;" vertex="1" parent="WIyWlLk6GJQsqaUBKTNV-1">
          <mxGeometry x="10" y="570" width="120" height="60" as="geometry" />
        </mxCell>
        <mxCell id="52Vc5Kafnn_lm5vKpaMh-24" value="" style="edgeStyle=orthogonalEdgeStyle;rounded=0;orthogonalLoop=1;jettySize=auto;html=1;" edge="1" parent="WIyWlLk6GJQsqaUBKTNV-1" source="52Vc5Kafnn_lm5vKpaMh-19">
          <mxGeometry relative="1" as="geometry">
            <mxPoint x="210" y="570" as="targetPoint" />
          </mxGeometry>
        </mxCell>
        <mxCell id="52Vc5Kafnn_lm5vKpaMh-28" value="YES" style="edgeLabel;html=1;align=center;verticalAlign=middle;resizable=0;points=[];" vertex="1" connectable="0" parent="52Vc5Kafnn_lm5vKpaMh-24">
          <mxGeometry x="-0.2486" y="-1" relative="1" as="geometry">
            <mxPoint as="offset" />
          </mxGeometry>
        </mxCell>
        <mxCell id="52Vc5Kafnn_lm5vKpaMh-27" value="" style="edgeStyle=orthogonalEdgeStyle;rounded=0;orthogonalLoop=1;jettySize=auto;html=1;" edge="1" parent="WIyWlLk6GJQsqaUBKTNV-1" source="52Vc5Kafnn_lm5vKpaMh-19" target="52Vc5Kafnn_lm5vKpaMh-26">
          <mxGeometry relative="1" as="geometry" />
        </mxCell>
        <mxCell id="52Vc5Kafnn_lm5vKpaMh-29" value="NO" style="edgeLabel;html=1;align=center;verticalAlign=middle;resizable=0;points=[];" vertex="1" connectable="0" parent="52Vc5Kafnn_lm5vKpaMh-27">
          <mxGeometry x="-0.1" y="-2" relative="1" as="geometry">
            <mxPoint as="offset" />
          </mxGeometry>
        </mxCell>
        <mxCell id="52Vc5Kafnn_lm5vKpaMh-19" value="Is the note B" style="rhombus;whiteSpace=wrap;html=1;shadow=0;fontFamily=Helvetica;fontSize=12;align=center;strokeWidth=1;spacing=6;spacingTop=-4;" vertex="1" parent="WIyWlLk6GJQsqaUBKTNV-1">
          <mxGeometry x="160" y="400" width="100" height="80" as="geometry" />
        </mxCell>
        <mxCell id="52Vc5Kafnn_lm5vKpaMh-57" value="" style="edgeStyle=orthogonalEdgeStyle;rounded=0;orthogonalLoop=1;jettySize=auto;html=1;" edge="1" parent="WIyWlLk6GJQsqaUBKTNV-1" source="52Vc5Kafnn_lm5vKpaMh-25" target="52Vc5Kafnn_lm5vKpaMh-30">
          <mxGeometry relative="1" as="geometry" />
        </mxCell>
        <mxCell id="52Vc5Kafnn_lm5vKpaMh-58" style="edgeStyle=orthogonalEdgeStyle;rounded=0;orthogonalLoop=1;jettySize=auto;html=1;exitX=0.5;exitY=1;exitDx=0;exitDy=0;entryX=0.5;entryY=0;entryDx=0;entryDy=0;" edge="1" parent="WIyWlLk6GJQsqaUBKTNV-1" source="52Vc5Kafnn_lm5vKpaMh-25" target="52Vc5Kafnn_lm5vKpaMh-55">
          <mxGeometry relative="1" as="geometry" />
        </mxCell>
        <mxCell id="52Vc5Kafnn_lm5vKpaMh-25" value="Fourth octave frequency=493.88" style="whiteSpace=wrap;html=1;shadow=0;strokeWidth=1;spacing=6;spacingTop=-4;" vertex="1" parent="WIyWlLk6GJQsqaUBKTNV-1">
          <mxGeometry x="150" y="570" width="120" height="60" as="geometry" />
        </mxCell>
        <mxCell id="52Vc5Kafnn_lm5vKpaMh-31" value="" style="edgeStyle=orthogonalEdgeStyle;rounded=0;orthogonalLoop=1;jettySize=auto;html=1;" edge="1" parent="WIyWlLk6GJQsqaUBKTNV-1" source="52Vc5Kafnn_lm5vKpaMh-26" target="52Vc5Kafnn_lm5vKpaMh-30">
          <mxGeometry relative="1" as="geometry" />
        </mxCell>
        <mxCell id="52Vc5Kafnn_lm5vKpaMh-32" value="YES" style="edgeLabel;html=1;align=center;verticalAlign=middle;resizable=0;points=[];" vertex="1" connectable="0" parent="52Vc5Kafnn_lm5vKpaMh-31">
          <mxGeometry x="0.0889" y="3" relative="1" as="geometry">
            <mxPoint as="offset" />
          </mxGeometry>
        </mxCell>
        <mxCell id="52Vc5Kafnn_lm5vKpaMh-34" value="" style="edgeStyle=orthogonalEdgeStyle;rounded=0;orthogonalLoop=1;jettySize=auto;html=1;" edge="1" parent="WIyWlLk6GJQsqaUBKTNV-1" source="52Vc5Kafnn_lm5vKpaMh-26" target="52Vc5Kafnn_lm5vKpaMh-33">
          <mxGeometry relative="1" as="geometry" />
        </mxCell>
        <mxCell id="52Vc5Kafnn_lm5vKpaMh-35" value="NO" style="edgeLabel;html=1;align=center;verticalAlign=middle;resizable=0;points=[];" vertex="1" connectable="0" parent="52Vc5Kafnn_lm5vKpaMh-34">
          <mxGeometry x="-0.1706" y="2" relative="1" as="geometry">
            <mxPoint as="offset" />
          </mxGeometry>
        </mxCell>
        <mxCell id="52Vc5Kafnn_lm5vKpaMh-26" value="Is the note C" style="rhombus;whiteSpace=wrap;html=1;shadow=0;fontFamily=Helvetica;fontSize=12;align=center;strokeWidth=1;spacing=6;spacingTop=-4;" vertex="1" parent="WIyWlLk6GJQsqaUBKTNV-1">
          <mxGeometry x="300" y="400" width="100" height="80" as="geometry" />
        </mxCell>
        <mxCell id="52Vc5Kafnn_lm5vKpaMh-60" style="edgeStyle=orthogonalEdgeStyle;rounded=0;orthogonalLoop=1;jettySize=auto;html=1;exitX=0.5;exitY=1;exitDx=0;exitDy=0;entryX=0.5;entryY=0;entryDx=0;entryDy=0;" edge="1" parent="WIyWlLk6GJQsqaUBKTNV-1" source="52Vc5Kafnn_lm5vKpaMh-30" target="52Vc5Kafnn_lm5vKpaMh-55">
          <mxGeometry relative="1" as="geometry" />
        </mxCell>
        <mxCell id="52Vc5Kafnn_lm5vKpaMh-30" value="Fourth octave frequency=261.63" style="whiteSpace=wrap;html=1;shadow=0;strokeWidth=1;spacing=6;spacingTop=-4;" vertex="1" parent="WIyWlLk6GJQsqaUBKTNV-1">
          <mxGeometry x="290" y="570" width="120" height="60" as="geometry" />
        </mxCell>
        <mxCell id="52Vc5Kafnn_lm5vKpaMh-37" value="" style="edgeStyle=orthogonalEdgeStyle;rounded=0;orthogonalLoop=1;jettySize=auto;html=1;" edge="1" parent="WIyWlLk6GJQsqaUBKTNV-1" source="52Vc5Kafnn_lm5vKpaMh-33" target="52Vc5Kafnn_lm5vKpaMh-36">
          <mxGeometry relative="1" as="geometry" />
        </mxCell>
        <mxCell id="52Vc5Kafnn_lm5vKpaMh-47" value="YES" style="edgeLabel;html=1;align=center;verticalAlign=middle;resizable=0;points=[];" vertex="1" connectable="0" parent="52Vc5Kafnn_lm5vKpaMh-37">
          <mxGeometry x="0.1111" y="-1" relative="1" as="geometry">
            <mxPoint as="offset" />
          </mxGeometry>
        </mxCell>
        <mxCell id="52Vc5Kafnn_lm5vKpaMh-43" value="" style="edgeStyle=orthogonalEdgeStyle;rounded=0;orthogonalLoop=1;jettySize=auto;html=1;" edge="1" parent="WIyWlLk6GJQsqaUBKTNV-1" source="52Vc5Kafnn_lm5vKpaMh-33" target="52Vc5Kafnn_lm5vKpaMh-42">
          <mxGeometry relative="1" as="geometry" />
        </mxCell>
        <mxCell id="52Vc5Kafnn_lm5vKpaMh-46" value="NO" style="edgeLabel;html=1;align=center;verticalAlign=middle;resizable=0;points=[];" vertex="1" connectable="0" parent="52Vc5Kafnn_lm5vKpaMh-43">
          <mxGeometry x="-0.1" y="-3" relative="1" as="geometry">
            <mxPoint as="offset" />
          </mxGeometry>
        </mxCell>
        <mxCell id="52Vc5Kafnn_lm5vKpaMh-33" value="Is the note D" style="rhombus;whiteSpace=wrap;html=1;shadow=0;fontFamily=Helvetica;fontSize=12;align=center;strokeWidth=1;spacing=6;spacingTop=-4;" vertex="1" parent="WIyWlLk6GJQsqaUBKTNV-1">
          <mxGeometry x="440" y="400" width="100" height="80" as="geometry" />
        </mxCell>
        <mxCell id="52Vc5Kafnn_lm5vKpaMh-62" style="edgeStyle=orthogonalEdgeStyle;rounded=0;orthogonalLoop=1;jettySize=auto;html=1;exitX=0.5;exitY=1;exitDx=0;exitDy=0;" edge="1" parent="WIyWlLk6GJQsqaUBKTNV-1" source="52Vc5Kafnn_lm5vKpaMh-36" target="52Vc5Kafnn_lm5vKpaMh-55">
          <mxGeometry relative="1" as="geometry" />
        </mxCell>
        <mxCell id="52Vc5Kafnn_lm5vKpaMh-36" value="Fourth octave frequency=293.66" style="whiteSpace=wrap;html=1;shadow=0;strokeWidth=1;spacing=6;spacingTop=-4;" vertex="1" parent="WIyWlLk6GJQsqaUBKTNV-1">
          <mxGeometry x="430" y="570" width="120" height="60" as="geometry" />
        </mxCell>
        <mxCell id="52Vc5Kafnn_lm5vKpaMh-45" value="" style="edgeStyle=orthogonalEdgeStyle;rounded=0;orthogonalLoop=1;jettySize=auto;html=1;" edge="1" parent="WIyWlLk6GJQsqaUBKTNV-1" source="52Vc5Kafnn_lm5vKpaMh-42" target="52Vc5Kafnn_lm5vKpaMh-44">
          <mxGeometry relative="1" as="geometry" />
        </mxCell>
        <mxCell id="52Vc5Kafnn_lm5vKpaMh-48" value="YES" style="edgeLabel;html=1;align=center;verticalAlign=middle;resizable=0;points=[];" vertex="1" connectable="0" parent="52Vc5Kafnn_lm5vKpaMh-45">
          <mxGeometry x="-0.0794" y="-1" relative="1" as="geometry">
            <mxPoint as="offset" />
          </mxGeometry>
        </mxCell>
        <mxCell id="52Vc5Kafnn_lm5vKpaMh-50" value="" style="edgeStyle=orthogonalEdgeStyle;rounded=0;orthogonalLoop=1;jettySize=auto;html=1;" edge="1" parent="WIyWlLk6GJQsqaUBKTNV-1" source="52Vc5Kafnn_lm5vKpaMh-42" target="52Vc5Kafnn_lm5vKpaMh-49">
          <mxGeometry relative="1" as="geometry" />
        </mxCell>
        <mxCell id="52Vc5Kafnn_lm5vKpaMh-51" value="NO" style="edgeLabel;html=1;align=center;verticalAlign=middle;resizable=0;points=[];" vertex="1" connectable="0" parent="52Vc5Kafnn_lm5vKpaMh-50">
          <mxGeometry x="0.6286" y="3" relative="1" as="geometry">
            <mxPoint x="-11" y="3" as="offset" />
          </mxGeometry>
        </mxCell>
        <mxCell id="52Vc5Kafnn_lm5vKpaMh-42" value="Is the note E" style="rhombus;whiteSpace=wrap;html=1;shadow=0;fontFamily=Helvetica;fontSize=12;align=center;strokeWidth=1;spacing=6;spacingTop=-4;" vertex="1" parent="WIyWlLk6GJQsqaUBKTNV-1">
          <mxGeometry x="580" y="400" width="100" height="80" as="geometry" />
        </mxCell>
        <mxCell id="52Vc5Kafnn_lm5vKpaMh-63" style="edgeStyle=orthogonalEdgeStyle;rounded=0;orthogonalLoop=1;jettySize=auto;html=1;exitX=0.5;exitY=1;exitDx=0;exitDy=0;entryX=0.5;entryY=0;entryDx=0;entryDy=0;" edge="1" parent="WIyWlLk6GJQsqaUBKTNV-1" source="52Vc5Kafnn_lm5vKpaMh-44" target="52Vc5Kafnn_lm5vKpaMh-55">
          <mxGeometry relative="1" as="geometry" />
        </mxCell>
        <mxCell id="52Vc5Kafnn_lm5vKpaMh-44" value="Fourth octave frequency=329.63" style="whiteSpace=wrap;html=1;shadow=0;strokeWidth=1;spacing=6;spacingTop=-4;" vertex="1" parent="WIyWlLk6GJQsqaUBKTNV-1">
          <mxGeometry x="570" y="570" width="120" height="60" as="geometry" />
        </mxCell>
        <mxCell id="52Vc5Kafnn_lm5vKpaMh-53" value="" style="edgeStyle=orthogonalEdgeStyle;rounded=0;orthogonalLoop=1;jettySize=auto;html=1;" edge="1" parent="WIyWlLk6GJQsqaUBKTNV-1" source="52Vc5Kafnn_lm5vKpaMh-49" target="52Vc5Kafnn_lm5vKpaMh-52">
          <mxGeometry relative="1" as="geometry" />
        </mxCell>
        <mxCell id="52Vc5Kafnn_lm5vKpaMh-54" value="YES" style="edgeLabel;html=1;align=center;verticalAlign=middle;resizable=0;points=[];" vertex="1" connectable="0" parent="52Vc5Kafnn_lm5vKpaMh-53">
          <mxGeometry x="0.1143" y="-2" relative="1" as="geometry">
            <mxPoint as="offset" />
          </mxGeometry>
        </mxCell>
        <mxCell id="52Vc5Kafnn_lm5vKpaMh-49" value="Is the note F" style="rhombus;whiteSpace=wrap;html=1;shadow=0;fontFamily=Helvetica;fontSize=12;align=center;strokeWidth=1;spacing=6;spacingTop=-4;" vertex="1" parent="WIyWlLk6GJQsqaUBKTNV-1">
          <mxGeometry x="710" y="400" width="100" height="80" as="geometry" />
        </mxCell>
        <mxCell id="52Vc5Kafnn_lm5vKpaMh-64" style="edgeStyle=orthogonalEdgeStyle;rounded=0;orthogonalLoop=1;jettySize=auto;html=1;exitX=0.5;exitY=1;exitDx=0;exitDy=0;entryX=0.5;entryY=0;entryDx=0;entryDy=0;" edge="1" parent="WIyWlLk6GJQsqaUBKTNV-1" source="52Vc5Kafnn_lm5vKpaMh-52" target="52Vc5Kafnn_lm5vKpaMh-55">
          <mxGeometry relative="1" as="geometry" />
        </mxCell>
        <mxCell id="52Vc5Kafnn_lm5vKpaMh-52" value="Fourth octave frequency=349.23" style="whiteSpace=wrap;html=1;shadow=0;strokeWidth=1;spacing=6;spacingTop=-4;" vertex="1" parent="WIyWlLk6GJQsqaUBKTNV-1">
          <mxGeometry x="700" y="570" width="120" height="60" as="geometry" />
        </mxCell>
        <mxCell id="52Vc5Kafnn_lm5vKpaMh-66" value="" style="edgeStyle=orthogonalEdgeStyle;rounded=0;orthogonalLoop=1;jettySize=auto;html=1;" edge="1" parent="WIyWlLk6GJQsqaUBKTNV-1" source="52Vc5Kafnn_lm5vKpaMh-55" target="52Vc5Kafnn_lm5vKpaMh-65">
          <mxGeometry relative="1" as="geometry" />
        </mxCell>
        <mxCell id="52Vc5Kafnn_lm5vKpaMh-55" value="frequency of note=frequency*2^(octave-4)" style="whiteSpace=wrap;html=1;shadow=0;strokeWidth=1;spacing=6;spacingTop=-4;" vertex="1" parent="WIyWlLk6GJQsqaUBKTNV-1">
          <mxGeometry x="290" y="820" width="190" height="60" as="geometry" />
        </mxCell>
        <mxCell id="52Vc5Kafnn_lm5vKpaMh-65" value="Print frequency of note" style="whiteSpace=wrap;html=1;shadow=0;strokeWidth=1;spacing=6;spacingTop=-4;" vertex="1" parent="WIyWlLk6GJQsqaUBKTNV-1">
          <mxGeometry x="325" y="960" width="120" height="60" as="geometry" />
        </mxCell>
      </root>
    </mxGraphModel>
  </diagram>
</mxfile>
